<?xml version="1.0" encoding="utf-8"?>
<!-- Generator: Adobe Illustrator 15.1.0, SVG Export Plug-In . SVG Version: 6.00 Build 0)  -->
<!DOCTYPE svg PUBLIC "-//W3C//DTD SVG 1.1//EN" "http://www.w3.org/Graphics/SVG/1.1/DTD/svg11.dtd">
<svg version="1.1" id="Layer_1" xmlns="http://www.w3.org/2000/svg" xmlns:xlink="http://www.w3.org/1999/xlink" x="0px" y="0px"
	 width="571.012px" height="571.013px" viewBox="18.134 114.717 571.012 571.013"
	 enable-background="new 18.134 114.717 571.012 571.013" xml:space="preserve">
<g>
	<circle fill="#111827" stroke="#FFFFFF" stroke-width="14" stroke-miterlimit="10" cx="303.64" cy="400.223" r="278.507"/>
	<path fill="#ADF7B6" d="M431.253,448.08c-27.121,0-47.857-20.74-47.857-47.864c0-27.108,20.736-47.846,47.857-47.846
		s47.859,20.737,47.859,47.846C479.113,427.339,458.376,448.08,431.253,448.08z"/>
	<path fill="#A0CED9" d="M303.65,573.537c-27.125,0-47.861-20.752-47.861-47.859c0-27.109,20.735-47.863,47.861-47.863
		c27.107,0,47.844,20.754,47.844,47.863C351.493,552.785,330.755,573.537,303.65,573.537z"/>
	<path fill="#FFEE93" d="M303.65,322.625c-27.125,0-47.861-20.736-47.861-47.862c0-27.123,20.735-47.852,47.861-47.852
		c27.107,0,47.844,20.729,47.844,47.852C351.493,301.888,330.755,322.625,303.65,322.625z"/>
	<path fill="#FFC09F" d="M176.025,448.08c-27.108,0-47.844-20.74-47.844-47.864c0-27.108,20.735-47.846,47.844-47.846
		c27.125,0,47.861,20.737,47.861,47.846C223.886,427.339,203.15,448.08,176.025,448.08z"/>
</g>
</svg>
